<svg width="812" height="845" viewBox="0 0 812 845" fill="none" xmlns="http://www.w3.org/2000/svg">
<path d="M188.24 478.117C180.94 484.357 170.76 485.947 161.9 482.257L115.65 462.857C106.22 458.927 100.06 449.727 100 439.507V168.097C100.06 157.877 106.22 148.687 115.65 144.747L161.9 125.657C170.76 121.957 180.94 123.557 188.24 129.797L198.61 138.387C192.31 133.857 183.52 135.287 178.99 141.597C177.26 143.997 176.34 146.887 176.35 149.837V457.757C176.33 465.527 182.61 471.837 190.37 471.857C193.33 471.857 196.21 470.937 198.61 469.217L188.24 478.127V478.117Z" fill="#52218A"/>
<path d="M115.65 462.847C106.22 458.917 100.06 449.717 100 439.497V437.397C100.09 445.517 106.74 452.017 114.85 451.937C118.87 451.897 122.7 450.207 125.45 447.257L519.89 11.1466C531.34 -0.243424 548.71 -3.19343 563.28 3.76657L689.12 64.3366C702.35 70.6966 710.76 84.0766 710.75 98.7566V100.217C710.74 86.8966 699.93 76.1166 686.62 76.1266C681.06 76.1266 675.67 78.0566 671.37 81.5766L198.61 469.207L188.24 478.117C180.94 484.357 170.76 485.947 161.9 482.257L115.65 462.857V462.847Z" fill="#6C33AF"/>
<path d="M115.65 144.747C106.22 148.677 100.06 157.877 100 168.097V170.197C100.09 162.077 106.74 155.577 114.85 155.657C118.87 155.697 122.7 157.387 125.45 160.337L519.89 596.447C531.34 607.837 548.71 610.787 563.28 603.827L689.12 543.257C702.35 536.897 710.76 523.517 710.75 508.837V507.377C710.74 520.697 699.93 531.477 686.62 531.467C681.06 531.467 675.67 529.537 671.37 526.017L198.61 138.387L188.24 129.477C180.88 123.347 170.7 121.877 161.9 125.657L115.65 144.747Z" fill="#854CC7"/>
<path d="M563.28 603.827C548.71 610.787 531.34 607.837 519.89 596.447C528.67 605.157 542.85 605.107 551.56 596.337C555.71 592.157 558.05 586.507 558.06 580.607V27.1166C558.1 14.7466 548.11 4.68658 535.74 4.64658C529.8 4.62658 524.1 6.96658 519.89 11.1466C531.34 -0.243424 548.71 -3.19343 563.28 3.76657L689.12 64.2666C702.35 70.6266 710.76 84.0066 710.75 98.6866V508.907C710.75 523.587 702.35 536.967 689.12 543.327L563.28 603.827Z" fill="#B179F1"/>
<g opacity="0.25">
<path fill-rule="evenodd" clip-rule="evenodd" d="M538.28 606.627C546.69 608.547 555.5 607.557 563.28 603.827L689.12 543.327C702.35 536.967 710.76 523.587 710.75 508.907V98.6868C710.75 84.0068 702.35 70.6268 689.12 64.2668L563.28 3.76681C554.38 -0.51319 544.16 -1.17319 534.78 1.92681C529.17 3.80681 524.07 6.96681 519.89 11.1468L317.07 235.467L198.61 138.387L188.24 129.477C181.91 124.067 173.33 122.097 165.27 124.197C164.11 124.457 162.98 124.837 161.9 125.347L115.65 144.747C106.82 148.387 100.78 156.667 100 166.187V441.407C100.78 450.927 106.82 459.207 115.65 462.847L161.9 481.937C162.98 482.437 164.11 482.827 165.27 483.087C173.33 485.187 181.91 483.217 188.24 477.807L198.61 469.217L317.07 372.137L519.89 596.457C524.95 601.507 531.32 605.027 538.28 606.637V606.627ZM558.07 174.527L400.36 303.797L558.07 433.067V174.517V174.527ZM176.35 216.457L255.3 303.807L176.35 391.157V216.457Z" fill="url(#paint0_linear_225_760)"/>
</g>
<path d="M811.621 727.173H772.97V842.749H750.643V727.173H712.086V708.223H811.621V727.173Z" fill="white"/>
<path d="M698.532 842.749H623.013V708.223H695.53V727.173H645.34V765.26H691.589V784.117H645.34V823.893H698.532V842.749Z" fill="white"/>
<path d="M587.694 842.749H563.303L499.041 743.871C497.415 741.37 496.071 738.774 495.007 736.085H494.444C494.945 738.962 495.195 745.122 495.195 754.566V842.749H473.618V708.223H499.604L561.708 804.755C564.335 808.758 566.023 811.51 566.774 813.011H567.149C566.524 809.446 566.211 803.411 566.211 794.905V708.223H587.694V842.749Z" fill="white"/>
<path d="M431.921 844.814C428.169 844.814 424.979 843.594 422.352 841.155C419.725 838.653 418.412 835.683 418.412 832.243C418.412 828.741 419.725 825.739 422.352 823.237C424.979 820.735 428.169 819.484 431.921 819.484C435.736 819.484 438.957 820.735 441.584 823.237C444.273 825.739 445.618 828.741 445.618 832.243C445.618 835.683 444.273 838.653 441.584 841.155C438.957 843.594 435.736 844.814 431.921 844.814Z" fill="white"/>
<path d="M341.91 845C322.522 845 306.98 838.715 295.285 826.144C283.652 813.573 277.836 797.219 277.836 777.08C277.836 755.441 283.777 738.18 295.66 725.296C307.543 712.412 323.679 705.971 344.067 705.971C362.955 705.971 378.152 712.225 389.66 724.733C401.23 737.241 407.015 753.596 407.015 773.797C407.015 795.749 401.105 813.104 389.285 825.863C377.464 838.621 361.673 845 341.91 845ZM342.942 725.577C330.621 725.577 320.583 730.174 312.828 739.368C305.135 748.561 301.289 760.663 301.289 775.673C301.289 790.621 305.041 802.66 312.546 811.791C320.051 820.922 329.87 825.487 342.003 825.487C354.887 825.487 365.05 821.141 372.492 812.448C379.935 803.754 383.656 791.59 383.656 775.955C383.656 759.881 380.029 747.467 372.774 738.711C365.582 729.955 355.638 725.577 342.942 725.577Z" fill="white"/>
<path d="M146.642 842.749V708.223H185.48C235.075 708.223 259.873 730.081 259.873 773.797C259.873 794.561 252.993 811.26 239.234 823.893C225.475 836.464 207.025 842.749 183.885 842.749H146.642ZM168.875 727.173V823.893H186.699C202.397 823.893 214.593 819.578 223.286 810.947C232.042 802.316 236.42 790.121 236.42 774.36C236.42 742.902 220.128 727.173 187.544 727.173H168.875Z" fill="white"/>
<path d="M126.146 842.749H101.661L89.559 808.508H36.6489L25.0162 842.749H0.625L51.0022 708.223H76.1438L126.146 842.749ZM83.6488 790.308L64.9802 736.648C64.4173 734.897 63.8232 732.082 63.1977 728.205H62.8225C62.2596 731.77 61.6342 734.584 60.9462 736.648L42.4652 790.308H83.6488Z" fill="white"/>
<defs>
<linearGradient id="paint0_linear_225_760" x1="405.38" y1="-0.00318951" x2="405.38" y2="607.577" gradientUnits="userSpaceOnUse">
<stop stop-color="white"/>
<stop offset="1" stop-color="white" stop-opacity="0"/>
</linearGradient>
</defs>
</svg>
