<svg width="2050" height="2050" viewBox="0 0 2050 2050" fill="none" xmlns="http://www.w3.org/2000/svg">
<path fill-rule="evenodd" clip-rule="evenodd" d="M1024.8 449.602C707.699 449.602 449.602 707.602 449.602 1024.8C449.602 1341.9 707.602 1600 1024.8 1600C1341.9 1600 1600 1342 1600 1024.8C1600 707.699 1341.9 449.602 1024.8 449.602ZM1024.8 1660C674.602 1660 389.602 1375.1 389.602 1024.8C389.602 674.602 674.5 389.602 1024.8 389.602C1375 389.602 1660 674.5 1660 1024.8C1660 1375 1375 1660 1024.8 1660ZM903.602 1072.6V975.5C903.602 906.199 847.199 849.801 777.902 849.801C708.602 849.801 652.199 906.199 652.199 975.5V1072.6H903.602ZM933.602 1259.7C917 1259.7 903.602 1246.3 903.602 1229.7V1132.6H652.301V1229.7C652.301 1246.3 638.902 1259.7 622.301 1259.7C605.699 1259.7 592.301 1246.3 592.301 1229.7V975.5C592.301 873.102 675.602 789.801 778 789.801C880.402 789.801 963.699 873.102 963.699 975.5V1229.7C963.602 1246.3 950.199 1259.7 933.602 1259.7ZM1427.3 1259.7C1410.7 1259.7 1397.3 1246.3 1397.3 1229.7V819.902C1397.3 803.301 1410.7 789.902 1427.3 789.902C1443.9 789.902 1457.3 803.301 1457.3 819.902V1229.7C1457.3 1246.3 1443.9 1259.7 1427.3 1259.7ZM1100.9 849.902V994.699H1187.6C1227.5 994.699 1260 962.199 1260 922.301C1260 882.402 1227.5 849.902 1187.6 849.902H1100.9ZM1070.8 1259.7C1054.2 1259.7 1040.8 1246.3 1040.8 1229.7V819.199C1041.2 802.902 1054.5 789.902 1070.8 789.902H1187.5C1260.5 789.902 1320 849.301 1320 922.402C1320 995.402 1260.6 1054.9 1187.5 1054.9H1100.8V1229.8C1100.9 1246.3 1087.4 1259.7 1070.8 1259.7ZM1142.1 2049.5H907.5C854.902 2049.5 812.102 2006.7 812.102 1954.1V1878C727.402 1857 646.801 1823.5 571.801 1778.3L517.902 1832.2C499.902 1850.2 476 1860.1 450.5 1860.1C425 1860.1 401 1850.2 383.102 1832.2L217.301 1666.4C199.301 1648.4 189.402 1624.5 189.402 1599C189.402 1573.5 199.301 1549.6 217.301 1531.6L271.199 1477.7C226 1402.7 192.602 1322.1 171.5 1237.4H95.4023C42.8008 1237.5 0 1194.7 0 1142.1V907.5C0 854.902 42.8008 812.102 95.4023 812.102H171.5C192.5 727.402 226 646.699 271.199 571.801L217.301 517.902C180.102 480.699 180.102 420.199 217.301 383.102L383.199 217.199C420.402 180 480.902 180 518 217.199L571.902 271.102C646.902 225.902 727.5 192.5 812.199 171.402V95.4023C812.199 42.8008 855 0 907.602 0H1142.2C1194.8 0 1237.6 42.8008 1237.6 95.4023V171.5C1322.3 192.5 1402.9 226 1477.9 271.199L1531.8 217.301C1569 180.199 1629.5 180.102 1666.6 217.301L1832.5 383.199C1850.5 401.199 1860.4 425.102 1860.4 450.602C1860.4 476.102 1850.5 500.102 1832.5 518L1778.6 571.902C1823.8 646.902 1857.2 727.5 1878.3 812.199H1954.4C2007 812.199 2049.8 855 2049.8 907.602V1142.2C2049.8 1194.8 2007 1237.6 1954.4 1237.6H1878.3C1857.3 1322.3 1823.8 1402.9 1778.6 1477.9L1832.5 1531.8C1850.5 1549.8 1860.4 1573.7 1860.4 1599.2C1860.4 1624.7 1850.5 1648.7 1832.5 1666.6L1666.6 1832.5C1648.6 1850.5 1624.7 1860.4 1599.2 1860.4C1573.7 1860.4 1549.8 1850.5 1531.8 1832.5L1477.9 1778.6C1402.9 1823.8 1322.3 1857.2 1237.6 1878.3V1954.4C1237.4 2006.7 1194.6 2049.5 1142.1 2049.5Z" fill="url(#paint0_linear_224_714)"/>
<defs>
<linearGradient id="paint0_linear_224_714" x1="0.150509" y1="-1.34361e-05" x2="2049.65" y2="2049.5" gradientUnits="userSpaceOnUse">
<stop stop-color="#94DDFF"/>
<stop offset="1" stop-color="#0088C7"/>
</linearGradient>
</defs>
</svg>
