<svg width="540" height="367" viewBox="0 0 540 367" fill="none" xmlns="http://www.w3.org/2000/svg">
<path d="M44.0572 262.243L51.932 262.155C66.4452 285.848 76.0354 301.814 80.7027 310.055C85.8101 319.066 90.3997 328.326 94.4714 337.835C95.6561 340.599 96.1513 340.483 95.9571 337.485C95.1608 324.998 94.7303 312.32 94.6656 299.451V281.002L94.7045 262.35L103.317 262.058L110.978 262.068L111.008 357.711L110.92 363.275C110.918 363.526 110.819 363.766 110.646 363.945C110.472 364.125 110.236 364.229 109.988 364.236L102.715 364.469L93.3354 364.605C93.1644 364.609 92.9954 364.566 92.8454 364.483C92.6953 364.399 92.5696 364.277 92.4809 364.13L76.3914 336.883C67.5554 322.095 57.9134 306.608 50.8445 290.994C50.1777 289.518 49.511 288.039 48.8442 286.557C47.7891 284.226 47.2939 284.339 47.3586 286.896L48.1354 318.871V338.534L48.116 357.828L47.9703 363.256C47.9632 363.502 47.8629 363.735 47.6899 363.91C47.5169 364.085 47.284 364.188 47.0382 364.198L45.3098 364.275L32.8325 364.217C32.58 364.214 32.3384 364.114 32.1589 363.936C31.9794 363.758 31.8762 363.518 31.8712 363.265L31.7935 359.168L31.5508 339.505V262.311C35.2341 261.942 39.4029 261.919 44.0572 262.243ZM141.555 262.029L161.325 262.068C163.267 262.155 179.521 262.184 179.822 262.787C179.66 266.916 179.57 271.046 179.55 275.176C179.544 276.834 180.139 277.332 181.337 276.672C181.49 276.587 181.618 276.463 181.707 276.312C181.796 276.162 181.842 275.991 181.842 275.817C181.842 273.516 182.386 264.311 181.123 262.835L181.609 262.35L201.174 262.107C207.175 262.45 213.127 262.437 219.031 262.068L238.286 262.136L255.162 262.272C255.583 267.302 255.57 272.331 255.123 277.361C249.88 276.979 244.633 276.966 239.383 277.322L228.722 277.419C228.468 277.419 228.225 277.519 228.045 277.698C227.865 277.876 227.763 278.118 227.76 278.371L227.527 300.18V357.469L227.45 363.265C227.445 363.513 227.346 363.749 227.172 363.926C226.999 364.103 226.765 364.207 226.517 364.217L219.235 364.547L210.632 364.295C210.387 364.29 210.153 364.191 209.978 364.017C209.803 363.844 209.7 363.61 209.69 363.362L209.486 357.954V339.262L209.37 318.949L209.486 299.209L209.253 277.934C209.251 277.804 209.222 277.675 209.17 277.556C209.117 277.436 209.042 277.329 208.948 277.239C208.854 277.15 208.743 277.08 208.622 277.034C208.501 276.989 208.372 276.968 208.243 276.973L203.213 277.157L181.57 277.313L162.189 277.157L142.274 277.342C142.018 277.344 141.773 277.448 141.593 277.63C141.413 277.811 141.312 278.057 141.312 278.313V304.481C141.312 304.737 141.413 304.983 141.593 305.164C141.773 305.346 142.018 305.45 142.274 305.452L176.783 305.763C177.012 305.766 177.232 305.85 177.406 305.999C177.58 306.148 177.696 306.353 177.734 306.579L177.9 307.588L178.074 319.357C178.077 319.485 178.054 319.613 178.007 319.732C177.96 319.852 177.89 319.96 177.8 320.053C177.711 320.145 177.604 320.218 177.486 320.269C177.368 320.319 177.241 320.346 177.113 320.347L161.859 320.357L142.293 320.338C142.036 320.338 141.789 320.44 141.606 320.622C141.424 320.804 141.322 321.051 141.322 321.309L141.351 338.136L141.545 348.506C141.55 348.76 141.655 349.002 141.837 349.18C142.018 349.358 142.262 349.458 142.516 349.458H180.783C180.992 349.458 181.196 349.39 181.366 349.264C183.318 347.817 182.589 357.187 182.599 357.808L182.58 363.353C182.577 363.538 182.523 363.719 182.423 363.874C182.324 364.029 182.183 364.151 182.017 364.227C181.686 364.376 181.308 364.401 180.881 364.304L161.461 364.547L141.555 364.469L123.145 364.508L123.262 360.381L123.368 263.204C123.368 262.948 123.469 262.703 123.649 262.521C123.829 262.339 124.074 262.236 124.33 262.233L141.555 262.029ZM297.274 262.058L306.528 262L319.607 301.015L325.802 319.881L332.618 344.991C333.136 346.894 333.638 346.891 334.123 344.981C337.962 329.931 342.471 315.091 347.649 300.461L354.213 282.041L360.865 263.233C360.93 263.046 361.051 262.883 361.21 262.767C361.37 262.65 361.561 262.586 361.758 262.583L375.566 262.272L376.711 262.32C376.955 262.33 377.185 262.432 377.356 262.605C377.527 262.778 377.627 263.009 377.634 263.253C377.938 271.228 378.362 279.196 378.906 287.159C380.11 304.743 380.857 321.745 382.159 339.02L383.13 357.954L383.518 363.547C383.526 363.682 383.506 363.818 383.46 363.945C383.413 364.072 383.341 364.188 383.248 364.286C383.155 364.383 383.043 364.46 382.919 364.512C382.795 364.564 382.662 364.589 382.528 364.586L375.051 364.401L372.177 364.217C371.974 364.206 371.781 364.129 371.623 363.998C371.466 363.867 371.354 363.689 371.303 363.489C370.856 361.767 370.743 360.016 370.963 358.236L369.701 338.291L368.642 319.376C368.034 304.967 367.396 290.576 366.729 276.206C366.723 276.07 366.71 275.947 366.691 275.837C366.483 274.879 366.276 274.879 366.069 275.837C361.583 296.373 353.873 316.725 346.921 336.553L340.27 355.789L337.26 363.654C337.178 363.873 337.019 364.055 336.813 364.168C336.315 364.434 335.852 364.544 335.424 364.499L328.123 364.168C327.926 364.16 327.737 364.091 327.58 363.971C327.424 363.851 327.308 363.686 327.249 363.498L324.87 356.255C320.274 341.761 315.649 327.277 310.994 312.803C307.401 301.623 304.22 290.35 301.449 278.983C300.834 276.439 300.329 276.461 299.935 279.051C299.779 280.041 299.685 281.012 299.653 281.964C299.019 301.105 298.174 320.163 297.119 339.136L295.41 363.479C295.395 363.722 295.289 363.95 295.112 364.118C294.935 364.286 294.702 364.38 294.458 364.382L284.68 364.547C284.546 364.55 284.413 364.525 284.288 364.474C284.164 364.424 284.052 364.348 283.959 364.252C283.866 364.156 283.794 364.043 283.748 363.918C283.701 363.793 283.682 363.66 283.69 363.528L284.01 357.711L284.981 339.748L286.438 319.6L287.651 299.209L289.098 281.041L290.584 262.223L297.274 262.058ZM403.763 281.731L415.017 319.095L423.659 350.458C423.675 350.515 423.71 350.564 423.76 350.598C423.809 350.632 423.87 350.647 423.931 350.642C424.164 350.623 424.3 350.39 424.339 350.147C426.019 340.078 429.737 329.921 432.67 320.095L445.235 281.731L451.439 262.806C451.503 262.609 451.629 262.438 451.799 262.318C451.968 262.197 452.172 262.133 452.381 262.136L465.14 262.35L459.8 278.293L446.167 317.9L439.185 338.087L432.971 356.294L430.971 362.294C430.705 363.22 430.307 363.913 429.776 364.372C429.608 364.522 429.387 364.605 429.155 364.605C424.649 364.651 420.154 364.317 415.668 363.605C415.312 361.074 414.742 359.029 413.959 357.469L384.576 263.282C384.53 263.135 384.52 262.979 384.545 262.828C384.571 262.676 384.632 262.533 384.724 262.41C384.816 262.286 384.936 262.187 385.074 262.119C385.212 262.051 385.364 262.017 385.518 262.019L397.219 262.233C397.424 262.237 397.623 262.305 397.787 262.429C397.951 262.553 398.072 262.726 398.132 262.922L403.763 281.731ZM510.884 262.282C519.843 261.945 528.566 263.162 537.052 265.933C537.29 266.01 537.489 266.178 537.607 266.4C537.724 266.623 537.752 266.883 537.683 267.127L535.11 276.147C535.073 276.277 535.01 276.398 534.924 276.501C534.838 276.605 534.731 276.69 534.61 276.75C534.49 276.81 534.358 276.845 534.223 276.852C534.089 276.858 533.954 276.837 533.828 276.788L530.411 275.477C516.952 271.079 501.057 272.341 489.862 281.731C484.761 286.184 481.294 291.674 479.462 298.199C477.093 305.294 476.349 312.492 477.229 319.794C477.436 326.701 479.232 333.041 482.618 338.816C484.159 341.683 486.088 344.26 488.405 346.545C495.15 352.455 502.983 355.52 511.903 355.74C517.6 356.07 523.131 355.501 528.498 354.031C530.297 353.753 531.974 353.177 533.527 352.303C533.653 352.234 533.792 352.193 533.935 352.182C534.078 352.172 534.221 352.194 534.355 352.245C534.488 352.295 534.608 352.375 534.707 352.477C534.805 352.58 534.88 352.702 534.926 352.837L536.712 358.197C537.14 359.394 537.318 360.602 537.246 361.819C537.234 362.015 537.162 362.203 537.039 362.358C536.915 362.512 536.747 362.626 536.557 362.683L529.711 364.79C523.581 366.149 517.467 366.797 511.369 366.732C504.708 366.615 498.283 365.447 492.095 363.227C480.08 358.216 471.756 349.581 467.121 337.32C455.653 303.714 471.384 264.243 510.884 262.282Z" fill="white"/>
<path d="M23.1898 351.692C25.2483 361.392 17.6551 369.267 7.78001 365.713C4.67929 363.926 2.64992 361.259 1.69187 357.712C0.714396 351.854 2.76319 347.484 7.83827 344.604C15.2761 342.157 20.3933 344.519 23.1898 351.692Z" fill="white"/>
<path d="M187.448 43.908C206.899 103.388 214.268 209.494 271.144 209.494C275.475 209.494 279.849 209.07 284.241 208.235C232.538 196.18 226.41 91.2276 194.86 36.877C192.387 39.1251 189.93 41.4686 187.448 43.908Z" fill="url(#paint0_linear_223_700)"/>
<path d="M194.859 36.8758C226.409 91.2264 232.537 196.179 284.24 208.234C288.302 207.488 292.373 206.359 296.452 204.936C250.043 182.196 237.215 80.2818 201.386 31.2168C199.216 33.0228 197.038 34.9149 194.859 36.8758Z" fill="url(#paint1_linear_223_700)"/>
<path d="M240.318 4.55371C235.996 4.55371 231.612 4.97718 227.212 5.8126C215.703 7.9824 204.012 12.938 192.226 20.4371C195.445 23.6137 198.509 27.2501 201.39 31.2169C213.377 21.2702 225.285 13.9191 237.15 9.50091C241.603 7.8519 246.038 6.61106 250.49 5.79524C247.279 4.97856 243.894 4.55371 240.318 4.55371Z" fill="#14559A"/>
<path d="M332.68 183.975C337.427 180.2 342.184 176.024 346.949 171.468C327.186 112.266 320.112 4.64062 262.836 4.64062C258.74 4.64062 254.608 5.02249 250.485 5.78621C302.657 18.7623 309.341 132.272 332.68 183.975Z" fill="url(#paint2_linear_223_700)"/>
<path d="M250.487 5.7895C247.275 4.97367 243.89 4.54883 240.314 4.54883L262.838 4.63136C258.741 4.63136 254.609 5.01322 250.487 5.78606" fill="#3092C4"/>
<path d="M331.68 196.552C329.44 194.417 327.314 192.074 325.222 189.574C315.588 196.396 305.989 201.569 296.45 204.937C299.843 206.595 303.402 207.827 307.178 208.591C310.103 209.188 313.132 209.494 316.317 209.494C327.019 209.494 335.481 208.227 342.685 204.772C338.719 202.628 335.082 199.851 331.68 196.552Z" fill="#1969BC"/>
<path d="M237.146 9.51003C283.877 33.9512 287.939 144.631 325.225 189.573C327.725 187.812 330.199 185.945 332.672 183.975C309.333 132.272 302.659 18.7532 250.496 5.78613C246.043 6.61932 241.599 7.8526 237.146 9.51003Z" fill="url(#paint3_linear_223_700)"/>
<path d="M201.387 31.2186C237.215 80.2837 250.044 182.198 296.452 204.938C305.991 201.57 315.591 196.397 325.225 189.575C287.938 144.633 283.876 33.9529 237.146 9.51172C225.281 13.9208 213.373 21.2719 201.387 31.2186Z" fill="url(#paint4_linear_223_700)"/>
<path d="M164.525 42.4749C158.909 55.1734 153.172 71.8634 146.237 93.6489C160.029 74.2153 173.777 57.473 187.447 43.9075C185.564 38.118 183.542 32.7803 181.363 28.0234C175.774 32.3027 170.14 37.1201 164.525 42.4749Z" fill="url(#paint5_linear_223_700)"/>
<path d="M186.342 24.3633C184.693 25.5436 183.036 26.7504 181.369 28.026C183.547 32.7823 185.561 38.1205 187.445 43.9093C189.926 41.479 192.391 39.1272 194.856 36.879C192.209 32.3308 189.397 28.13 186.342 24.3633Z" fill="#2B74B1"/>
<path d="M192.226 20.4375C190.265 21.679 188.312 22.9892 186.342 24.3605C189.397 28.1274 192.209 32.3282 194.865 36.8853C197.044 34.9148 199.222 33.0142 201.392 31.2174C198.51 27.2512 195.447 23.6141 192.226 20.4375Z" fill="#125A9E"/>
<path d="M510.965 0.0238987C484.535 101.946 429.334 183.811 383.056 204.45H382.968C382.126 204.832 381.293 205.179 380.468 205.517C380.355 205.586 380.252 205.595 380.164 205.636C379.921 205.734 379.695 205.81 379.452 205.907C379.339 205.976 379.236 205.998 379.132 206.039C378.741 206.178 378.359 206.296 377.977 206.449C377.812 206.518 377.657 206.561 377.5 206.616C377.326 206.684 377.126 206.748 376.927 206.803C376.753 206.872 376.571 206.922 376.371 206.998C376.206 207.066 376.032 207.096 375.877 207.164C375.538 207.262 375.226 207.345 374.887 207.463C374.748 207.463 374.619 207.538 374.471 207.575C374.262 207.643 374.028 207.693 373.802 207.755C373.646 207.824 373.516 207.846 373.351 207.881C373.116 207.949 372.856 208.013 372.622 208.068C372.309 208.137 372.032 208.201 371.736 208.263C373.828 209.035 376.007 209.426 378.359 209.426C422.242 209.426 466.489 130.782 539.7 0H510.954L510.965 0.0238987Z" fill="url(#paint6_linear_223_700)"/>
<path d="M136.707 8.68946C136.734 8.68946 136.769 8.62068 136.786 8.62068C136.82 8.62068 136.873 8.62068 136.891 8.55191H136.946C137.189 8.46938 137.414 8.37138 137.657 8.28112C137.719 8.28112 137.752 8.28112 137.797 8.21234C137.858 8.21234 137.919 8.14357 137.979 8.13497C138.24 8.05245 138.5 7.95444 138.743 7.86418H138.784C139.366 7.6907 139.904 7.47544 140.468 7.2741C140.547 7.2741 140.624 7.20533 140.719 7.20533C140.954 7.12968 141.197 7.04543 141.44 6.99007C141.553 6.9213 141.666 6.9213 141.77 6.88519C142.021 6.80954 142.265 6.72529 142.499 6.66993C142.604 6.66993 142.699 6.60116 142.776 6.59428C143.584 6.37214 144.382 6.16376 145.189 5.96931C145.303 5.96931 145.398 5.90053 145.519 5.89365C145.753 5.82488 145.971 5.78878 146.222 5.75439C146.327 5.68562 146.448 5.68562 146.569 5.64951C146.803 5.58074 147.029 5.57386 147.281 5.51712H147.446C147.932 5.41912 148.427 5.33659 148.913 5.24633H149.208C149.442 5.17755 149.65 5.17068 149.885 5.12769C150.014 5.12769 150.145 5.05892 150.267 5.05892C150.484 5.05892 150.701 4.99015 150.918 4.96092C151.031 4.96092 151.143 4.96092 151.274 4.89214C151.786 4.82337 152.315 4.79586 152.853 4.75288C151.335 4.60674 149.772 4.50977 148.184 4.50977C98.7632 4.50977 30.6731 96.2077 0 214.96H5.9107C15.7271 197.454 24.5454 180.893 32.6086 165.348C54.0902 81.2359 97.8432 23.8732 136.71 8.67588" fill="url(#paint7_linear_223_700)"/>
<path d="M164.524 42.4753C170.14 37.1205 175.773 32.3031 181.362 28.0245C180.087 25.2298 178.768 22.6432 177.353 20.2734C172.831 25.7588 168.699 32.9975 164.524 42.4753Z" fill="#0D82CA"/>
<path d="M168.585 9.3843C171.814 12.0922 174.704 15.816 177.351 20.2773C178.184 19.2531 179.027 18.3068 179.903 17.4215C176.232 13.9933 172.265 11.1812 167.96 9.06348C168.134 9.15976 168.307 9.23713 168.488 9.31347C168.488 9.31347 168.556 9.38224 168.586 9.38224" fill="#0D82CA"/>
<path d="M32.6055 165.358C77.6691 78.5203 99.0205 23.5621 136.707 8.68555C97.8487 23.8925 54.0871 81.2545 32.6055 165.358Z" fill="url(#paint8_linear_223_700)"/>
<path d="M179.9 17.4199C179.024 18.3143 178.191 19.2517 177.349 20.2759C178.764 22.645 180.082 25.2231 181.368 28.0263C183.034 26.7507 184.691 25.5439 186.341 24.3636C184.301 21.8465 182.149 19.512 179.9 17.4199Z" fill="#127BCA"/>
<path d="M53.0641 214.58C52.7864 214.649 52.5087 214.649 52.2483 214.678H52.092C51.8573 214.678 51.6143 214.747 51.3976 214.747H51.2845C50.7207 214.816 50.1648 214.816 49.6267 214.859H49.4531C95.0635 213.582 115.911 190.746 126.257 157.626C134.121 132.516 140.579 111.364 146.238 93.6152C127.134 120.504 107.944 152.557 88.6494 188.464C79.3451 205.771 65.1976 213 53.0638 214.546" fill="url(#paint9_linear_223_700)"/>
<path d="M53.0645 214.561C65.1983 213.015 79.3458 205.794 88.6501 188.479C107.944 152.581 127.143 120.519 146.229 93.63C153.173 71.8356 158.901 55.1545 164.526 42.4561C126.484 78.6667 88.2943 138.876 53.0645 214.543" fill="url(#paint10_linear_223_700)"/>
<path d="M32.6052 165.361C24.5423 180.906 15.724 197.467 5.90723 214.973H23.1015C25.3755 197.588 28.6043 181.01 32.6052 165.37" fill="#05A1E6"/>
<path d="M151.272 4.93628C151.133 4.93628 151.029 5.00506 150.908 5.00506C150.699 5.07383 150.482 5.07383 150.265 5.09618C150.136 5.09618 150.014 5.09618 149.883 5.16495C149.649 5.23373 149.432 5.2406 149.206 5.28359C149.101 5.28359 148.998 5.28359 148.911 5.35236C148.416 5.43489 147.93 5.52601 147.444 5.60923H147.279C147.028 5.678 146.802 5.71411 146.568 5.7485C146.446 5.81727 146.325 5.81727 146.211 5.84478C145.977 5.91355 145.743 5.94278 145.517 5.98404C145.395 6.05282 145.301 6.05282 145.187 6.05969C144.38 6.25415 143.582 6.46253 142.774 6.68467C142.688 6.68467 142.601 6.75344 142.497 6.7672C142.254 6.83597 142.019 6.90646 141.768 6.98246C141.663 7.05123 141.542 7.05123 141.438 7.07874C141.195 7.14751 140.952 7.21801 140.717 7.294C140.623 7.294 140.544 7.36277 140.457 7.36277C139.901 7.57098 139.355 7.77937 138.782 7.95302C138.539 8.02867 138.278 8.1265 138.018 8.21677C137.913 8.28554 137.818 8.30101 137.697 8.34915C137.454 8.4248 137.211 8.52281 136.985 8.61307C136.9 8.68184 136.812 8.68872 136.751 8.72483C99.0655 23.6013 77.7141 78.5595 32.6505 165.398C28.6492 181.038 25.4118 197.616 23.1465 215H25.5594C32.3554 215 34.2735 214.931 42.0937 214.931H42.4929H43.656H44.0552H44.1684H44.5676H44.7933H44.9496H45.262H46.2341H47.2062H48.0221H48.2387H49.6708C50.2089 214.863 50.7644 214.863 51.3286 214.82H51.4328C51.6675 214.82 51.9015 214.751 52.1271 214.751H52.2917C52.543 214.751 52.8298 214.682 53.1075 214.653C88.3374 138.986 126.527 78.7762 164.569 42.5655C168.752 33.0877 172.875 25.849 177.388 20.3726C174.75 15.9115 171.86 12.1793 168.631 9.47067C168.631 9.47067 168.543 9.47067 168.536 9.4019C168.354 9.32625 168.181 9.23513 167.998 9.14503C167.815 9.04703 167.659 8.97138 167.469 8.87424C167.304 8.80546 167.113 8.71434 166.948 8.62425C166.723 8.55547 166.54 8.45747 166.341 8.36721C166.176 8.29843 166.028 8.22794 165.863 8.159C165.524 8.02661 165.186 7.8882 164.865 7.7424C164.717 7.67363 164.579 7.63752 164.439 7.5825C164.205 7.49826 163.936 7.38805 163.693 7.28386C163.571 7.21508 163.432 7.20133 163.294 7.15147C162.938 7.03283 162.591 6.90853 162.261 6.79729H162.175C161.775 6.6649 161.385 6.56827 160.977 6.45703C160.882 6.38826 160.803 6.38826 160.708 6.3745C160.352 6.2765 160.039 6.18005 159.701 6.08978C159.615 6.08978 159.536 6.02101 159.467 6.02101C158.651 5.80575 157.81 5.63227 156.959 5.47254C156.871 5.47254 156.785 5.40377 156.699 5.40377C156.334 5.335 155.978 5.27138 155.614 5.23012C155.526 5.16134 155.474 5.16134 155.397 5.16134C154.963 5.09257 154.538 5.04271 154.112 4.99457H153.887C153.54 4.9258 153.219 4.91892 152.897 4.88281C152.35 4.95159 151.83 4.98081 151.318 5.02896" fill="url(#paint11_linear_223_700)"/>
<path d="M407.731 56.4483C399.061 84.2226 392.039 107.136 385.929 125.988C409.719 93.2492 433.153 52.0649 455.469 4.53711C429.439 12.7124 415.552 31.4259 407.731 56.4483Z" fill="url(#paint12_linear_223_700)"/>
<path d="M386.685 202.715C385.47 203.333 384.254 203.921 383.057 204.451C429.335 183.811 484.537 101.947 510.966 0.0244141H505.61C444.889 108.491 425.36 181.103 386.685 202.715Z" fill="url(#paint13_linear_223_700)"/>
<path d="M356.465 193.601C366.533 181.311 374.735 160.42 385.932 125.988C373.016 143.729 360.015 158.979 347.004 171.416C347.004 171.485 347.004 171.485 346.936 171.528C349.774 180.034 352.89 187.541 356.44 193.6" fill="#079AE1"/>
<path d="M356.464 193.602C353.035 197.785 349.408 200.971 345.371 203.332C344.486 203.846 343.592 204.33 342.681 204.772C346.943 207.072 351.594 208.609 356.802 209.225C357.565 209.3 358.32 209.371 359.111 209.426H359.25C359.604 209.426 359.979 209.426 360.361 209.495H360.514H361.651H362.875H363.257H364.125C364.265 209.495 364.41 209.495 364.549 209.426C364.82 209.426 365.104 209.426 365.382 209.357H365.48H365.792C366.077 209.357 366.39 209.288 366.695 209.259H366.764C366.855 209.259 366.951 209.19 367.042 209.19C367.361 209.122 367.694 209.092 368.005 209.044H368.29C368.644 208.975 369.01 208.932 369.375 208.864H369.443H369.548C370.277 208.724 370.989 208.586 371.709 208.406C365.738 206.218 360.738 201.063 356.433 193.72" fill="#1969BC"/>
<path d="M271.145 209.496C275.476 209.496 279.85 209.072 284.242 208.228C288.304 207.491 292.374 206.362 296.454 204.938C299.848 206.597 303.406 207.829 307.173 208.593C310.098 209.19 313.136 209.496 316.321 209.496H271.145Z" fill="#1E5CB3"/>
<path d="M316.322 209.494C327.015 209.494 335.486 208.227 342.681 204.772C346.943 207.072 351.595 208.609 356.802 209.225C357.566 209.301 358.322 209.372 359.111 209.427H359.251C359.605 209.427 359.98 209.427 360.362 209.495H360.521H361.659H316.291L316.322 209.494Z" fill="#1E5CB3"/>
<path d="M361.686 209.495H362.918H363.3H364.16C364.306 209.495 364.444 209.495 364.583 209.426C364.854 209.426 365.139 209.426 365.425 209.358H365.517H365.836C366.121 209.358 366.433 209.289 366.73 209.261H366.806C366.897 209.261 366.986 209.192 367.077 209.192C367.396 209.124 367.73 209.096 368.04 209.046C368.145 209.046 368.227 209.046 368.338 208.978C368.693 208.909 369.059 208.873 369.424 208.804H369.493H369.597C370.327 208.665 371.038 208.526 371.758 208.346C373.85 209.118 376.029 209.509 378.38 209.509L361.698 209.578L361.686 209.495Z" fill="#1D60B5"/>
<path d="M346.963 171.53V171.461C342.198 176.017 337.441 180.193 332.693 183.968C330.211 185.938 327.738 187.804 325.238 189.566C327.33 192.066 329.456 194.409 331.696 196.545C335.098 199.842 338.734 202.62 342.701 204.764C343.604 204.319 344.506 203.835 345.383 203.323C349.427 200.962 353.055 197.777 356.484 193.594C352.934 187.535 349.818 180.027 346.98 171.521" fill="#175FAB"/>
<path d="M488.65 0.0244141H466.135H463.896H461.778H461.696C460.238 0.0931873 458.823 0.143048 457.425 0.232797C456.766 1.64798 456.089 3.06299 455.438 4.48642C433.123 52.0142 409.689 93.1985 385.898 125.937C374.711 160.368 366.5 181.26 356.432 193.55C360.737 200.893 365.745 206.057 371.699 208.244C371.872 208.175 372.011 208.175 372.167 208.139H372.264C372.369 208.139 372.48 208.07 372.594 208.07C372.837 208.002 373.097 207.959 373.34 207.883C373.497 207.814 373.626 207.807 373.783 207.758C374.009 207.689 374.243 207.639 374.451 207.584C374.59 207.515 374.729 207.493 374.868 207.465C375.215 207.353 375.527 207.271 375.857 207.167C376.014 207.098 376.179 207.041 376.352 207C376.543 206.931 376.734 206.881 376.908 206.798C377.108 206.73 377.307 206.694 377.481 206.618C377.637 206.549 377.801 206.506 377.949 206.444C378.339 206.305 378.722 206.187 379.112 206.035C379.217 206.035 379.321 205.938 379.434 205.916C379.668 205.818 379.911 205.742 380.146 205.638C380.231 205.569 380.336 205.562 380.449 205.526C381.265 205.186 382.107 204.839 382.949 204.459H383.036C384.234 203.932 385.449 203.339 386.656 202.723C425.34 181.112 444.869 108.499 505.59 0.0328388H488.63L488.65 0.0244141Z" fill="url(#paint14_linear_223_700)"/>
<path d="M152.854 4.79083C152.95 4.79083 153.036 4.79083 153.131 4.8596C153.365 4.8596 153.6 4.8596 153.834 4.93525H154.069C154.494 5.00403 154.919 5.04013 155.353 5.10203C155.433 5.10203 155.501 5.10203 155.57 5.1708C155.926 5.23958 156.29 5.29631 156.655 5.35133C156.734 5.35133 156.838 5.42011 156.924 5.42011C157.758 5.58688 158.608 5.76036 159.424 5.97562C159.501 5.97562 159.581 6.04439 159.65 6.04439C159.997 6.12692 160.309 6.2318 160.657 6.32894C160.761 6.32894 160.838 6.39772 160.934 6.41319C161.343 6.51807 161.724 6.62157 162.123 6.75345C162.141 6.75345 162.165 6.75345 162.211 6.82222C162.549 6.92538 162.896 7.05828 163.253 7.17623C163.392 7.245 163.521 7.27423 163.652 7.30862C163.895 7.4135 164.164 7.51683 164.398 7.61414C164.538 7.61414 164.676 7.71043 164.823 7.76029C165.144 7.90643 165.483 8.03796 165.813 8.17688C165.986 8.24565 166.133 8.32302 166.299 8.38509C166.49 8.48309 166.689 8.57267 166.897 8.64213C167.071 8.72466 167.262 8.81561 167.426 8.89195C167.609 8.98995 167.782 9.0656 167.956 9.16274C172.261 11.2806 176.228 14.1017 179.899 17.5214C181.253 16.098 182.668 14.8217 184.135 13.6762C176.106 7.98242 167.01 4.73633 156.517 4.73633C155.302 4.73633 154.086 4.8051 152.854 4.89623" fill="#7DCBEC"/>
<path d="M179.9 17.4205C182.148 19.5119 184.301 21.8471 186.34 24.3642C188.311 22.9928 190.264 21.6734 192.225 20.441C189.656 17.8718 186.948 15.5631 184.127 13.5752C182.66 14.7125 181.254 15.997 179.9 17.4205Z" fill="#5EC5ED"/>
<path d="M152.851 4.78966C154.084 4.68551 155.299 4.64211 156.514 4.64211C167.007 4.64211 176.103 7.88822 184.132 13.5732C192.603 6.89008 202.845 4.55531 217.07 4.55531H148.182C149.77 4.55531 151.324 4.65079 152.851 4.78966Z" fill="url(#paint15_linear_223_700)"/>
<path d="M217.07 4.55414C202.845 4.55414 192.603 6.88891 184.132 13.5721C186.944 15.5597 189.652 17.8684 192.221 20.4375C204.016 12.9385 215.699 7.97384 227.217 5.80398C231.608 4.97944 235.991 4.55414 240.314 4.55414H217.07Z" fill="url(#paint16_linear_223_700)"/>
<path d="M385.928 126.006C392.047 107.137 399.051 84.2324 407.74 56.449C415.569 31.4176 429.43 12.7048 455.459 4.5378C456.147 3.13999 456.796 1.69919 457.465 0.28418C415.03 2.82759 395.198 24.4129 385.217 56.3797C367.762 112.188 357.191 148.364 347.01 171.417C360.012 158.988 373.013 143.729 385.928 126.006Z" fill="url(#paint17_linear_223_700)"/>
<path d="M448.182 194.627H443.373V209.573H441.412V194.627H436.586V192.849H448.182V194.627Z" fill="white"/>
<path d="M467.871 209.572H465.919V198.341C465.919 197.456 465.987 196.371 466.079 195.095C465.877 195.859 465.71 196.389 465.558 196.727L459.864 209.572H458.909L453.198 196.823C453.031 196.469 452.865 195.894 452.684 195.095H452.616C452.684 195.769 452.707 196.857 452.707 198.368V209.572H450.832V192.848H453.418L458.548 204.521C458.936 205.398 459.18 206.075 459.303 206.526H459.379C459.719 205.606 459.997 204.92 460.186 204.469L465.42 192.848H467.885V209.572H467.871Z" fill="white"/>
<defs>
<linearGradient id="paint0_linear_223_700" x1="5026.83" y1="-3331.93" x2="5026.83" y2="22412.4" gradientUnits="userSpaceOnUse">
<stop stop-color="#0994DC"/>
<stop offset="0.350006" stop-color="#66CEF5"/>
<stop offset="0.846161" stop-color="#127BCA"/>
<stop offset="1" stop-color="#127BCA"/>
</linearGradient>
<linearGradient id="paint1_linear_223_700" x1="5274.57" y1="-3423.49" x2="5274.57" y2="22976.9" gradientUnits="userSpaceOnUse">
<stop stop-color="#0E76BC"/>
<stop offset="0.360001" stop-color="#36AEE8"/>
<stop offset="0.846161" stop-color="#00ADEF"/>
<stop offset="1" stop-color="#00ADEF"/>
</linearGradient>
<linearGradient id="paint2_linear_223_700" x1="5073.57" y1="19896.7" x2="5073.57" y2="-1109.73" gradientUnits="userSpaceOnUse">
<stop stop-color="#1C63B7"/>
<stop offset="0.5" stop-color="#33BDF2"/>
<stop offset="1" stop-color="#33BDF2" stop-opacity="0.419608"/>
</linearGradient>
<linearGradient id="paint3_linear_223_700" x1="5013.53" y1="-3580.82" x2="5013.53" y2="23829.6" gradientUnits="userSpaceOnUse">
<stop stop-color="#166AB8"/>
<stop offset="0.399994" stop-color="#36AEE8"/>
<stop offset="0.846161" stop-color="#0798DD"/>
<stop offset="1" stop-color="#0798DD"/>
</linearGradient>
<linearGradient id="paint4_linear_223_700" x1="6393.11" y1="-3805.42" x2="6393.11" y2="25342" gradientUnits="userSpaceOnUse">
<stop stop-color="#124379"/>
<stop offset="0.389999" stop-color="#1487CB"/>
<stop offset="0.780228" stop-color="#165197"/>
<stop offset="1" stop-color="#165197"/>
</linearGradient>
<linearGradient id="paint5_linear_223_700" x1="146.25" y1="3309.33" x2="4267.24" y2="3309.33" gradientUnits="userSpaceOnUse">
<stop stop-color="#33BDF2" stop-opacity="0.698039"/>
<stop offset="1" stop-color="#1DACD8"/>
</linearGradient>
<linearGradient id="paint6_linear_223_700" x1="8771.54" y1="19829.8" x2="8771.54" y2="-633.425" gradientUnits="userSpaceOnUse">
<stop stop-color="#136AB4"/>
<stop offset="0.6" stop-color="#59CAF5" stop-opacity="0.54902"/>
<stop offset="1" stop-color="#59CAF5" stop-opacity="0.235294"/>
</linearGradient>
<linearGradient id="paint7_linear_223_700" x1="-0.1163" y1="10526.9" x2="15285.2" y2="10526.9" gradientUnits="userSpaceOnUse">
<stop stop-color="#05A1E6" stop-opacity="0.247059"/>
<stop offset="1" stop-color="#05A1E6"/>
</linearGradient>
<linearGradient id="paint8_linear_223_700" x1="5237.49" y1="19485.3" x2="5237.49" y2="-1467.39" gradientUnits="userSpaceOnUse">
<stop stop-color="#318ED5"/>
<stop offset="1" stop-color="#38A7E4"/>
</linearGradient>
<linearGradient id="paint9_linear_223_700" x1="4888.54" y1="11151" x2="4888.54" y2="-9216.11" gradientUnits="userSpaceOnUse">
<stop stop-color="#05A1E6"/>
<stop offset="1" stop-color="#05A1E6" stop-opacity="0.54902"/>
</linearGradient>
<linearGradient id="paint10_linear_223_700" x1="5626.13" y1="17254.7" x2="5626.13" y2="44.2102" gradientUnits="userSpaceOnUse">
<stop stop-color="#1959A6"/>
<stop offset="0.5" stop-color="#05A1E6"/>
<stop offset="0.917587" stop-color="#7EC5EA"/>
<stop offset="1" stop-color="#7EC5EA"/>
</linearGradient>
<linearGradient id="paint11_linear_223_700" x1="9247.45" y1="19875.2" x2="3413.52" y2="2046.41" gradientUnits="userSpaceOnUse">
<stop stop-color="#165096"/>
<stop offset="1" stop-color="#0D82CA"/>
</linearGradient>
<linearGradient id="paint12_linear_223_700" x1="3862.55" y1="9356.03" x2="3862.55" y2="-396.122" gradientUnits="userSpaceOnUse">
<stop stop-color="#05A1E6"/>
<stop offset="0.873627" stop-color="#0495D6"/>
<stop offset="1" stop-color="#0495D6"/>
</linearGradient>
<linearGradient id="paint13_linear_223_700" x1="8730.8" y1="-850.683" x2="-358.203" y2="19329.5" gradientUnits="userSpaceOnUse">
<stop stop-color="#38A7E4" stop-opacity="0.329412"/>
<stop offset="0.961533" stop-color="#0E88D3"/>
<stop offset="1" stop-color="#0E88D3"/>
</linearGradient>
<linearGradient id="paint14_linear_223_700" x1="7816.85" y1="-61.562" x2="7816.85" y2="21213.9" gradientUnits="userSpaceOnUse">
<stop stop-color="#168CD4"/>
<stop offset="0.5" stop-color="#1C87CC"/>
<stop offset="1" stop-color="#154B8D"/>
</linearGradient>
<linearGradient id="paint15_linear_223_700" x1="1296.82" y1="-1840.2" x2="1389" y2="391.118" gradientUnits="userSpaceOnUse">
<stop stop-color="#97D6EE"/>
<stop offset="0.703293" stop-color="#55C1EA"/>
<stop offset="1" stop-color="#55C1EA"/>
</linearGradient>
<linearGradient id="paint16_linear_223_700" x1="571.234" y1="-79.6337" x2="987.953" y2="-2443.21" gradientUnits="userSpaceOnUse">
<stop stop-color="#7ACCEC"/>
<stop offset="1" stop-color="#3FB7ED"/>
</linearGradient>
<linearGradient id="paint17_linear_223_700" x1="5869.38" y1="1089.17" x2="5869.38" y2="21898.7" gradientUnits="userSpaceOnUse">
<stop stop-color="#1DA7E7"/>
<stop offset="1" stop-color="#37ABE7" stop-opacity="0"/>
</linearGradient>
</defs>
</svg>
