<svg width="758" height="661" viewBox="0 0 758 661" fill="none" xmlns="http://www.w3.org/2000/svg">
<path d="M570.726 409.386L536.888 496.397C529.856 511.925 519.993 519.688 507.298 519.688C503.733 519.688 500.755 519.371 498.362 518.736V504.601C501.048 505.479 503.489 505.919 505.687 505.919C512.034 505.919 516.771 502.794 519.896 496.544L524.949 484.239L495.14 409.386H513.963L531.834 463.878C532.029 464.562 532.469 466.368 533.152 469.298H533.519C533.763 468.175 534.202 466.417 534.837 464.024L553.587 409.386H570.726Z" fill="white"/>
<path d="M489.611 483.58C486.291 485.24 481.921 486.07 476.501 486.07C461.95 486.07 454.675 479.088 454.675 465.123V422.716H442.15V409.386H454.675V392.027L471.667 387.193V409.386H489.611V422.716H471.667V460.216C471.667 464.659 472.473 467.833 474.084 469.737C475.695 471.642 478.381 472.594 482.141 472.594C485.021 472.594 487.512 471.764 489.611 470.104V483.58Z" fill="white"/>
<path d="M417.872 393.639C415.089 393.639 412.696 392.735 410.694 390.929C408.741 389.122 407.765 386.827 407.765 384.044C407.765 381.261 408.741 378.941 410.694 377.086C412.696 375.23 415.089 374.303 417.872 374.303C420.753 374.303 423.194 375.23 425.196 377.086C427.198 378.941 428.199 381.261 428.199 384.044C428.199 386.681 427.198 388.951 425.196 390.855C423.194 392.711 420.753 393.639 417.872 393.639ZM426.295 484.386H409.303V409.386H426.295V484.386Z" fill="white"/>
<path d="M393.154 483.58C389.834 485.24 385.464 486.07 380.044 486.07C365.493 486.07 358.218 479.088 358.218 465.123V422.716H345.693V409.386H358.218V392.027L375.21 387.193V409.386H393.154V422.716H375.21V460.216C375.21 464.659 376.016 467.833 377.627 469.737C379.238 471.642 381.924 472.594 385.684 472.594C388.564 472.594 391.055 471.764 393.154 470.104V483.58Z" fill="white"/>
<path d="M331.303 484.386H314.311V442.125C314.311 428.111 309.354 421.104 299.442 421.104C294.267 421.104 289.994 423.058 286.625 426.964C283.256 430.821 281.571 435.704 281.571 441.612V484.386H264.506V409.386H281.571V421.837H281.864C287.479 412.364 295.585 407.628 306.181 407.628C314.335 407.628 320.561 410.289 324.857 415.611C329.154 420.885 331.303 428.526 331.303 438.536V484.386Z" fill="white"/>
<path d="M246.233 484.386H187.273V379.356H243.89V394.151H204.705V423.888H240.813V438.609H204.705V469.664H246.233V484.386Z" fill="white"/>
<path d="M757.399 658.724H735.866L706.716 622.688H706.423V658.724H689.357V547.688H706.423V618.074H706.716L734.255 583.724H754.689L723.708 619.905L757.399 658.724Z" fill="white"/>
<path d="M675.846 599.91C673.795 598.299 670.841 597.493 666.983 597.493C661.954 597.493 657.755 599.764 654.386 604.305C651.017 608.846 649.332 615.022 649.332 622.835V658.724H632.34V583.724H649.332V599.178H649.625C651.285 593.904 653.824 589.803 657.242 586.873C660.709 583.895 664.566 582.405 668.814 582.405C671.891 582.405 674.234 582.869 675.846 583.797V599.91Z" fill="white"/>
<path d="M574.443 660.481C562.871 660.481 553.618 656.99 546.685 650.008C539.8 642.977 536.357 633.675 536.357 622.103C536.357 609.505 539.946 599.666 547.124 592.586C554.351 585.506 564.067 581.966 576.274 581.966C587.993 581.966 597.124 585.408 603.667 592.293C610.21 599.178 613.481 608.724 613.481 620.931C613.481 632.894 609.941 642.488 602.861 649.715C595.83 656.893 586.357 660.481 574.443 660.481ZM575.249 595.516C568.608 595.516 563.359 597.835 559.502 602.474C555.645 607.112 553.716 613.509 553.716 621.663C553.716 629.524 555.669 635.726 559.575 640.267C563.481 644.759 568.706 647.005 575.249 647.005C581.938 647.005 587.065 644.783 590.63 640.34C594.243 635.896 596.05 629.573 596.05 621.37C596.05 613.118 594.243 606.746 590.63 602.254C587.065 597.762 581.938 595.516 575.249 595.516Z" fill="white"/>
<path d="M527.606 583.724L505.487 658.724H487.689L474.066 607.894C473.529 605.94 473.188 603.743 473.041 601.302H472.748C472.65 602.962 472.211 605.11 471.43 607.747L456.635 658.724H439.203L417.157 583.724H434.735L448.358 637.776C448.798 639.388 449.091 641.536 449.237 644.222H449.75C449.896 642.171 450.287 639.974 450.922 637.63L466.083 583.724H482.05L495.526 637.996C495.966 639.705 496.283 641.854 496.479 644.441H496.991C497.089 642.635 497.455 640.486 498.09 637.996L511.42 583.724H527.606Z" fill="white"/>
<path d="M404.524 658.724H387.532V617.854C387.532 609.993 386.409 604.305 384.163 600.789C381.966 597.273 378.23 595.516 372.957 595.516C368.514 595.516 364.729 597.737 361.604 602.181C358.528 606.624 356.99 611.946 356.99 618.147V658.724H339.925V616.463C339.925 602.498 334.993 595.516 325.13 595.516C320.54 595.516 316.756 597.615 313.777 601.814C310.848 606.014 309.383 611.458 309.383 618.147V658.724H292.391V583.724H309.383V595.589H309.676C315.096 586.507 322.981 581.966 333.333 581.966C338.509 581.966 343.025 583.406 346.883 586.287C350.789 589.119 353.45 592.854 354.866 597.493C360.433 587.142 368.733 581.966 379.769 581.966C396.272 581.966 404.524 592.146 404.524 612.508V658.724Z" fill="white"/>
<path d="M270.09 658.724H253.61V647.005H253.317C248.142 655.989 240.549 660.481 230.539 660.481C223.166 660.481 217.38 658.479 213.181 654.476C209.03 650.472 206.955 645.174 206.955 638.582C206.955 624.422 215.109 616.17 231.418 613.826L253.684 610.677C253.684 599.983 248.605 594.637 238.449 594.637C229.514 594.637 221.457 597.713 214.279 603.865V588.997C222.189 584.31 231.32 581.966 241.672 581.966C260.617 581.966 270.09 591.292 270.09 609.944V658.724ZM253.684 621.883L237.937 624.08C233.054 624.715 229.367 625.911 226.877 627.669C224.436 629.378 223.215 632.405 223.215 636.751C223.215 639.925 224.338 642.537 226.584 644.588C228.879 646.59 231.931 647.591 235.739 647.591C240.915 647.591 245.188 645.784 248.557 642.171C251.975 638.509 253.684 633.919 253.684 628.401V621.883Z" fill="white"/>
<path d="M194.835 625.838H143.712C143.907 632.771 146.031 638.118 150.084 641.878C154.186 645.638 159.801 647.518 166.93 647.518C174.938 647.518 182.286 645.125 188.976 640.34V654.036C182.14 658.333 173.106 660.481 161.876 660.481C150.841 660.481 142.174 657.088 135.875 650.301C129.625 643.465 126.5 633.87 126.5 621.517C126.5 609.847 129.942 600.35 136.827 593.025C143.761 585.652 152.354 581.966 162.608 581.966C172.862 581.966 180.797 585.262 186.412 591.854C192.027 598.445 194.835 607.601 194.835 619.319V625.838ZM178.429 613.826C178.38 607.723 176.939 602.986 174.107 599.617C171.275 596.199 167.369 594.49 162.389 594.49C157.506 594.49 153.355 596.272 149.938 599.837C146.568 603.401 144.493 608.064 143.712 613.826H178.429Z" fill="white"/>
<path d="M119.141 599.91C117.09 598.299 114.136 597.493 110.278 597.493C105.249 597.493 101.05 599.764 97.6807 604.305C94.3115 608.846 92.627 615.022 92.627 622.835V658.724H75.6348V583.724H92.627V599.178H92.9199C94.5801 593.904 97.1191 589.803 100.537 586.873C104.004 583.895 107.861 582.405 112.109 582.405C115.186 582.405 117.529 582.869 119.141 583.797V599.91Z" fill="white"/>
<path d="M57.2891 568.489H18.0312V600.057H54.2129V614.778H18.0312V658.724H0.599609V553.694H57.2891V568.489Z" fill="white"/>
<path d="M265.204 60.7157C292.1 142.964 302.29 289.689 380.939 289.689C386.928 289.689 392.977 289.103 399.05 287.948C327.554 271.278 319.081 126.149 275.454 50.9932C272.033 54.102 268.636 57.3425 265.204 60.7157Z" fill="url(#paint0_linear_225_900)"/>
<path d="M275.452 50.9923C319.079 126.149 327.553 271.277 399.048 287.947C404.665 286.915 410.294 285.355 415.935 283.386C351.761 251.941 334.022 111.014 284.478 43.167C281.477 45.6643 278.465 48.2807 275.452 50.9923Z" fill="url(#paint1_linear_225_900)"/>
<path d="M338.313 6.29688C332.336 6.29688 326.274 6.88245 320.19 8.03768C304.275 11.0381 288.109 17.8907 271.811 28.2604C276.263 32.6531 280.499 37.6815 284.484 43.1669C301.059 29.4126 317.526 19.2473 333.933 13.1379C340.089 10.8576 346.223 9.14179 352.379 8.01367C347.938 6.88435 343.258 6.29688 338.313 6.29688Z" fill="#14559A"/>
<path d="M466.031 254.401C472.596 249.181 479.173 243.407 485.762 237.107C458.433 155.241 448.652 6.41699 369.451 6.41699C363.786 6.41699 358.073 6.94503 352.372 8.00112C424.516 25.9446 433.757 182.906 466.031 254.401Z" fill="url(#paint2_linear_225_900)"/>
<path d="M352.374 8.00564C347.933 6.87752 343.253 6.29004 338.308 6.29004L369.453 6.40416C363.788 6.40416 358.075 6.9322 352.374 8.00089" fill="#3092C4"/>
<path d="M464.648 271.793C461.552 268.841 458.612 265.6 455.719 262.144C442.396 271.577 429.122 278.73 415.933 283.387C420.625 285.68 425.546 287.384 430.767 288.44C434.811 289.266 439 289.689 443.405 289.689C458.203 289.689 469.905 287.936 479.866 283.159C474.382 280.194 469.353 276.354 464.648 271.793Z" fill="#1969BC"/>
<path d="M333.927 13.1504C398.545 46.9477 404.162 199.997 455.723 262.143C459.179 259.707 462.6 257.126 466.02 254.401C433.747 182.906 424.517 25.9318 352.386 8.00098C346.229 9.15311 340.084 10.8585 333.927 13.1504Z" fill="url(#paint3_linear_225_900)"/>
<path d="M284.479 43.1687C334.022 111.016 351.761 251.943 415.936 283.388C429.126 278.731 442.4 271.578 455.722 262.145C404.162 199.999 398.545 46.9496 333.926 13.1523C317.52 19.2492 301.053 29.4144 284.479 43.1687Z" fill="url(#paint4_linear_225_900)"/>
<path d="M233.506 58.7345C225.741 76.294 217.807 99.3731 208.218 129.498C227.289 102.625 246.3 79.4739 265.203 60.7155C262.599 52.7097 259.802 45.3288 256.79 38.751C249.061 44.6683 241.271 51.3298 233.506 58.7345Z" fill="url(#paint5_linear_225_900)"/>
<path d="M263.675 33.6895C261.394 35.3216 259.102 36.9904 256.798 38.7542C259.81 45.3313 262.594 52.713 265.199 60.7178C268.631 57.3572 272.039 54.105 275.448 50.9962C271.788 44.707 267.899 38.8981 263.675 33.6895Z" fill="#2B74B1"/>
<path d="M271.811 28.2607C269.099 29.9775 266.399 31.7892 263.674 33.6855C267.898 38.8943 271.787 44.7033 275.46 51.0048C278.473 48.28 281.485 45.6519 284.485 43.1672C280.501 37.6828 276.264 32.6534 271.811 28.2607Z" fill="#125A9E"/>
<path d="M712.564 0.0330472C676.018 140.972 599.686 254.174 535.691 282.715H535.57C534.406 283.243 533.254 283.723 532.114 284.19C531.957 284.285 531.814 284.297 531.693 284.354C531.357 284.49 531.045 284.594 530.709 284.729C530.552 284.824 530.409 284.855 530.265 284.912C529.726 285.104 529.197 285.267 528.669 285.478C528.441 285.573 528.225 285.633 528.008 285.709C527.768 285.804 527.492 285.892 527.216 285.968C526.976 286.063 526.725 286.132 526.448 286.237C526.22 286.332 525.98 286.373 525.765 286.468C525.296 286.603 524.865 286.717 524.396 286.88C524.204 286.88 524.025 286.985 523.82 287.035C523.532 287.13 523.208 287.199 522.896 287.285C522.679 287.38 522.5 287.411 522.272 287.458C521.947 287.553 521.587 287.641 521.263 287.717C520.831 287.813 520.447 287.901 520.039 287.986C522.932 289.055 525.944 289.595 529.197 289.595C589.879 289.595 651.063 180.845 752.3 0H712.55L712.564 0.0330472Z" fill="url(#paint6_linear_225_900)"/>
<path d="M195.038 12.016C195.077 12.016 195.124 11.9209 195.148 11.9209C195.195 11.9209 195.269 11.9209 195.293 11.8258H195.369C195.705 11.7117 196.017 11.5762 196.353 11.4514C196.439 11.4514 196.484 11.4514 196.546 11.3563C196.631 11.3563 196.714 11.2612 196.798 11.2493C197.158 11.1352 197.518 10.9996 197.854 10.8748H197.911C198.716 10.6349 199.46 10.3373 200.24 10.0589C200.349 10.0589 200.456 9.96377 200.587 9.96377C200.912 9.85916 201.248 9.74266 201.584 9.6661C201.74 9.571 201.896 9.571 202.04 9.52108C202.387 9.41647 202.724 9.29997 203.048 9.22341C203.193 9.22341 203.324 9.12831 203.432 9.1188C204.548 8.81163 205.652 8.52348 206.768 8.25459C206.925 8.25459 207.057 8.15948 207.224 8.14997C207.548 8.05487 207.849 8.00495 208.197 7.9574C208.342 7.8623 208.509 7.8623 208.677 7.81237C209 7.71727 209.312 7.70776 209.661 7.6293H209.889C210.561 7.49379 211.245 7.37967 211.918 7.25485H212.326C212.649 7.15975 212.937 7.15024 213.262 7.0908C213.44 7.0908 213.622 6.9957 213.79 6.9957C214.089 6.9957 214.39 6.9006 214.689 6.86018C214.846 6.86018 215.001 6.86018 215.182 6.76508C215.89 6.66998 216.622 6.63194 217.366 6.57251C215.266 6.37042 213.106 6.23633 210.909 6.23633C142.57 6.23633 48.4149 133.037 6 297.247H14.1733C27.7475 273.04 39.9415 250.14 51.0913 228.644C80.7962 112.334 141.298 33.0122 195.043 11.9972" fill="url(#paint7_linear_225_900)"/>
<path d="M233.505 58.735C241.27 51.3303 249.059 44.6688 256.789 38.7524C255.025 34.8878 253.201 31.3111 251.244 28.0342C244.991 35.6193 239.278 45.6291 233.505 58.735Z" fill="#0D82CA"/>
<path d="M239.12 12.9768C243.585 16.7214 247.581 21.8706 251.242 28.0397C252.394 26.6234 253.559 25.3149 254.771 24.0907C249.694 19.3502 244.209 15.4616 238.256 12.5332C238.496 12.6663 238.736 12.7733 238.986 12.8789C238.986 12.8789 239.081 12.974 239.121 12.974" fill="#0D82CA"/>
<path d="M51.0869 228.658C113.401 108.578 142.926 32.582 195.038 12.0107C141.306 33.039 80.7917 112.359 51.0869 228.658Z" fill="url(#paint8_linear_225_900)"/>
<path d="M254.767 24.0879C253.555 25.3247 252.403 26.6209 251.238 28.0372C253.195 31.3131 255.018 34.8782 256.796 38.7544C259.1 36.9906 261.392 35.3218 263.672 33.6896C260.852 30.209 257.876 26.9808 254.767 24.0879Z" fill="#127BCA"/>
<path d="M79.3771 296.722C78.993 296.817 78.609 296.817 78.2489 296.857H78.0328C77.7083 296.857 77.3722 296.952 77.0726 296.952H76.9162C76.1366 297.048 75.368 297.048 74.6238 297.107H74.3838C137.454 295.342 166.283 263.765 180.589 217.965C191.463 183.244 200.392 153.995 208.218 129.451C181.801 166.633 155.265 210.956 128.585 260.608C115.718 284.54 96.1553 294.537 79.3766 296.675" fill="url(#paint9_linear_225_900)"/>
<path d="M79.3779 296.695C96.1567 294.558 115.72 284.572 128.586 260.629C155.266 210.989 181.814 166.654 208.207 129.472C217.808 99.3342 225.73 76.2675 233.507 58.708C180.902 108.78 128.094 192.038 79.3779 296.671" fill="url(#paint10_linear_225_900)"/>
<path d="M51.0869 228.662C39.9376 250.158 27.7436 273.058 14.1689 297.265H37.9453C41.0898 273.225 45.5545 250.301 51.0869 228.674" fill="#05A1E6"/>
<path d="M215.179 6.82589C214.987 6.82589 214.843 6.92099 214.675 6.92099C214.387 7.01609 214.087 7.01609 213.787 7.047C213.609 7.047 213.44 7.047 213.259 7.1421C212.935 7.2372 212.635 7.24671 212.323 7.30615C212.178 7.30615 212.035 7.30615 211.915 7.40125C211.23 7.51537 210.559 7.64137 209.886 7.75645H209.658C209.311 7.85155 208.998 7.90147 208.674 7.94902C208.505 8.04412 208.338 8.04412 208.181 8.08216C207.858 8.17726 207.533 8.21768 207.221 8.27474C207.053 8.36984 206.922 8.36984 206.765 8.37935C205.649 8.64824 204.545 8.9364 203.429 9.24357C203.31 9.24357 203.189 9.33867 203.045 9.35769C202.709 9.45279 202.384 9.55027 202.037 9.65535C201.892 9.75045 201.724 9.75045 201.58 9.78849C201.244 9.88359 200.908 9.98107 200.584 10.0862C200.453 10.0862 200.344 10.1813 200.224 10.1813C199.456 10.4692 198.7 10.7573 197.908 10.9974C197.572 11.1021 197.212 11.2373 196.852 11.3622C196.707 11.4573 196.575 11.4787 196.408 11.5452C196.072 11.6498 195.736 11.7854 195.424 11.9102C195.305 12.0053 195.184 12.0148 195.1 12.0647C142.988 32.636 113.463 108.632 51.149 228.712C45.6161 250.34 41.1393 273.264 38.0068 297.303H41.3434C50.7409 297.303 53.3933 297.208 64.2071 297.208H64.7592H66.3674H66.9195H67.076H67.628H67.9401H68.1562H68.5883H69.9325H71.2767H72.4049H72.7045H74.6848C75.4289 297.113 76.197 297.113 76.9772 297.054H77.1212C77.4458 297.054 77.7693 296.958 78.0814 296.958H78.3089C78.6565 296.958 79.053 296.863 79.4371 296.823C128.153 192.19 180.962 108.932 233.566 58.8598C239.351 45.7538 245.052 35.7441 251.293 28.1713C247.644 22.0024 243.648 16.8416 239.183 13.0961C239.183 13.0961 239.062 13.0961 239.052 13.001C238.8 12.8964 238.561 12.7703 238.308 12.6458C238.056 12.5103 237.84 12.4056 237.577 12.2713C237.348 12.1762 237.084 12.0502 236.856 11.9256C236.545 11.8305 236.292 11.695 236.017 11.5702C235.788 11.4751 235.584 11.3776 235.356 11.2823C234.887 11.0992 234.42 10.9078 233.976 10.7062C233.771 10.6111 233.58 10.5612 233.387 10.4851C233.063 10.3686 232.691 10.2162 232.355 10.0721C232.186 9.97703 231.995 9.95801 231.803 9.88906C231.311 9.72501 230.831 9.55312 230.374 9.3993H230.256C229.703 9.21623 229.163 9.08261 228.599 8.92879C228.468 8.83369 228.359 8.83369 228.228 8.81467C227.735 8.67915 227.303 8.54577 226.835 8.42096C226.716 8.42096 226.607 8.32586 226.512 8.32586C225.384 8.02819 224.219 7.7883 223.043 7.56743C222.922 7.56743 222.803 7.47233 222.683 7.47233C222.179 7.37723 221.687 7.28927 221.183 7.23221C221.062 7.13711 220.99 7.13711 220.883 7.13711C220.283 7.04201 219.695 6.97306 219.107 6.90649H218.795C218.315 6.81139 217.871 6.80188 217.427 6.75195C216.67 6.84705 215.951 6.88747 215.242 6.95404" fill="url(#paint11_linear_225_900)"/>
<path d="M569.813 78.0565C557.823 116.463 548.113 148.148 539.664 174.216C572.561 128.945 604.967 71.9951 635.824 6.27344C599.83 17.5782 580.627 43.4553 569.813 78.0565Z" fill="url(#paint12_linear_225_900)"/>
<path d="M540.709 280.314C539.029 281.169 537.349 281.982 535.692 282.715C599.687 254.174 676.019 140.972 712.566 0.0332031H705.16C621.194 150.021 594.19 250.429 540.709 280.314Z" fill="url(#paint13_linear_225_900)"/>
<path d="M498.921 267.712C512.844 250.717 524.185 221.829 539.668 174.217C521.809 198.749 503.831 219.837 485.839 237.035C485.839 237.13 485.839 237.13 485.744 237.19C489.669 248.951 493.977 259.333 498.887 267.71" fill="#079AE1"/>
<path d="M498.92 267.713C494.178 273.498 489.162 277.903 483.581 281.168C482.357 281.878 481.121 282.548 479.86 283.16C485.754 286.34 492.186 288.465 499.387 289.316C500.442 289.421 501.487 289.519 502.58 289.595H502.772C503.262 289.595 503.781 289.595 504.309 289.69H504.52H506.093H507.786H508.314H509.514C509.707 289.69 509.908 289.69 510.1 289.595C510.474 289.595 510.868 289.595 511.252 289.5H511.387H511.819C512.213 289.5 512.645 289.405 513.068 289.364H513.163C513.289 289.364 513.422 289.269 513.547 289.269C513.988 289.174 514.449 289.134 514.879 289.067H515.273C515.763 288.972 516.269 288.913 516.773 288.817H516.868H517.013C518.021 288.625 519.005 288.433 520.001 288.184C511.744 285.159 504.831 278.03 498.878 267.876" fill="#1969BC"/>
<path d="M380.939 289.691C386.929 289.691 392.978 289.106 399.051 287.939C404.668 286.919 410.296 285.358 415.937 283.39C420.63 285.683 425.551 287.387 430.76 288.443C434.804 289.269 439.005 289.691 443.41 289.691H380.939Z" fill="#1E5CB3"/>
<path d="M443.41 289.689C458.197 289.689 469.911 287.937 479.861 283.16C485.753 286.34 492.186 288.465 499.387 289.318C500.444 289.422 501.488 289.52 502.58 289.596H502.773C503.262 289.596 503.781 289.596 504.309 289.691H504.53H506.103H443.368L443.41 289.689Z" fill="#1E5CB3"/>
<path d="M506.141 289.691H507.845H508.373H509.562C509.764 289.691 509.955 289.691 510.147 289.596C510.522 289.596 510.916 289.596 511.312 289.501H511.438H511.88C512.273 289.501 512.706 289.406 513.116 289.368H513.221C513.347 289.368 513.471 289.273 513.595 289.273C514.037 289.177 514.498 289.139 514.927 289.07C515.072 289.07 515.187 289.07 515.34 288.975C515.83 288.88 516.337 288.83 516.841 288.735H516.936H517.081C518.089 288.543 519.073 288.351 520.069 288.102C522.961 289.169 525.974 289.71 529.226 289.71L506.158 289.805L506.141 289.691Z" fill="#1D60B5"/>
<path d="M485.782 237.192V237.097C479.193 243.397 472.616 249.171 466.05 254.391C462.618 257.116 459.198 259.696 455.741 262.133C458.633 265.589 461.574 268.83 464.671 271.782C469.375 276.342 474.404 280.184 479.889 283.148C481.137 282.533 482.385 281.863 483.597 281.155C489.19 277.891 494.207 273.487 498.948 267.702C494.039 259.324 489.731 248.942 485.806 237.18" fill="#175FAB"/>
<path d="M681.707 0.0332031H650.574H647.477H644.549H644.435C642.418 0.128303 640.463 0.19725 638.53 0.321356C637.618 2.27827 636.681 4.23495 635.781 6.20328C604.924 71.9249 572.519 128.875 539.622 174.146C524.151 221.757 512.797 250.647 498.875 267.641C504.828 277.795 511.753 284.936 519.986 287.96C520.227 287.865 520.418 287.865 520.635 287.815H520.768C520.913 287.815 521.067 287.72 521.224 287.72C521.56 287.625 521.92 287.565 522.256 287.461C522.472 287.366 522.652 287.356 522.869 287.287C523.181 287.192 523.504 287.123 523.792 287.047C523.985 286.952 524.176 286.921 524.368 286.883C524.848 286.729 525.28 286.614 525.737 286.47C525.953 286.375 526.181 286.297 526.421 286.24C526.685 286.144 526.949 286.076 527.189 285.961C527.466 285.866 527.741 285.816 527.981 285.712C528.198 285.616 528.425 285.557 528.63 285.471C529.169 285.279 529.698 285.116 530.238 284.905C530.383 284.905 530.526 284.772 530.682 284.741C531.006 284.605 531.342 284.501 531.667 284.357C531.786 284.262 531.931 284.252 532.086 284.202C533.214 283.732 534.378 283.252 535.543 282.726H535.664C537.32 281.997 539 281.178 540.669 280.326C594.162 250.441 621.166 150.033 705.132 0.0448529H681.68L681.707 0.0332031Z" fill="url(#paint14_linear_225_900)"/>
<path d="M217.366 6.62419C217.499 6.62419 217.619 6.6242 217.75 6.71929C218.074 6.71929 218.398 6.71929 218.722 6.8239H219.047C219.635 6.919 220.223 6.96893 220.823 7.05452C220.932 7.05452 221.028 7.05452 221.123 7.14962C221.614 7.24472 222.119 7.32318 222.623 7.39926C222.732 7.39926 222.876 7.49436 222.995 7.49436C224.148 7.72498 225.324 7.96487 226.452 8.26253C226.559 8.26253 226.668 8.35763 226.764 8.35763C227.244 8.47175 227.676 8.61677 228.156 8.7511C228.301 8.7511 228.408 8.8462 228.54 8.8676C229.105 9.01263 229.633 9.15575 230.185 9.33811C230.209 9.33811 230.242 9.33811 230.306 9.43321C230.773 9.57586 231.254 9.75964 231.746 9.92273C231.939 10.0178 232.118 10.0583 232.298 10.1058C232.634 10.2508 233.007 10.3937 233.33 10.5283C233.523 10.5283 233.714 10.6614 233.918 10.7304C234.362 10.9325 234.83 11.1143 235.286 11.3064C235.526 11.4015 235.73 11.5085 235.958 11.5944C236.222 11.7299 236.498 11.8537 236.786 11.9498C237.026 12.0639 237.29 12.1897 237.518 12.2952C237.77 12.4308 238.009 12.5354 238.25 12.6697C244.203 15.5983 249.688 19.4993 254.765 24.2281C256.637 22.2598 258.593 20.495 260.622 18.9109C249.52 11.0375 236.942 6.54883 222.432 6.54883C220.751 6.54883 219.071 6.64393 217.367 6.76994" fill="#7DCBEC"/>
<path d="M254.767 24.0888C257.875 26.9807 260.852 30.2099 263.672 33.6905C266.396 31.7942 269.097 29.9697 271.809 28.2655C268.257 24.7128 264.512 21.5203 260.611 18.7715C258.583 20.3442 256.639 22.1204 254.767 24.0888Z" fill="#5EC5ED"/>
<path d="M217.363 6.62258C219.068 6.47856 220.748 6.41855 222.428 6.41855C236.938 6.41855 249.517 10.9073 260.618 18.7686C272.332 9.52705 286.495 6.29853 306.166 6.29853H210.906C213.103 6.29853 215.251 6.43055 217.363 6.62258Z" fill="url(#paint15_linear_225_900)"/>
<path d="M306.166 6.29718C286.494 6.29718 272.332 9.5257 260.618 18.7672C264.507 21.5156 268.251 24.7082 271.804 28.2607C288.115 17.8911 304.269 11.0259 320.196 8.02546C326.269 6.88527 332.33 6.29718 338.307 6.29718H306.166Z" fill="url(#paint16_linear_225_900)"/>
<path d="M539.663 174.241C548.125 148.149 557.81 116.476 569.824 78.0576C580.65 43.4441 599.817 17.5679 635.811 6.2745C636.762 4.3416 637.659 2.34926 638.584 0.392578C579.906 3.90961 552.482 33.7579 538.679 77.9617C514.543 155.134 499.925 205.158 485.847 237.036C503.826 219.849 521.804 198.749 539.663 174.241Z" fill="url(#paint17_linear_225_900)"/>
<path d="M625.747 269.132H619.098V289.799H616.386V269.132H609.713V266.672H625.747V269.132Z" fill="white"/>
<path d="M652.974 289.797H650.274V274.266C650.274 273.042 650.369 271.543 650.495 269.778C650.216 270.834 649.986 271.567 649.775 272.034L641.902 289.797H640.581L632.684 272.167C632.453 271.677 632.223 270.882 631.974 269.778H631.879C631.974 270.709 632.005 272.215 632.005 274.303V289.797H629.412V266.67H632.989L640.081 282.812C640.619 284.025 640.955 284.961 641.126 285.585H641.231C641.701 284.313 642.085 283.364 642.347 282.74L649.584 266.67H652.993V289.797H652.974Z" fill="white"/>
<defs>
<linearGradient id="paint0_linear_225_900" x1="6957.12" y1="-4607.4" x2="6957.12" y2="30991.9" gradientUnits="userSpaceOnUse">
<stop stop-color="#0994DC"/>
<stop offset="0.350006" stop-color="#66CEF5"/>
<stop offset="0.846161" stop-color="#127BCA"/>
<stop offset="1" stop-color="#127BCA"/>
</linearGradient>
<linearGradient id="paint1_linear_225_900" x1="7299.69" y1="-4734.01" x2="7299.69" y2="31772.6" gradientUnits="userSpaceOnUse">
<stop stop-color="#0E76BC"/>
<stop offset="0.360001" stop-color="#36AEE8"/>
<stop offset="0.846161" stop-color="#00ADEF"/>
<stop offset="1" stop-color="#00ADEF"/>
</linearGradient>
<linearGradient id="paint2_linear_225_900" x1="7021.75" y1="27513.2" x2="7021.75" y2="-1534.55" gradientUnits="userSpaceOnUse">
<stop stop-color="#1C63B7"/>
<stop offset="0.5" stop-color="#33BDF2"/>
<stop offset="1" stop-color="#33BDF2" stop-opacity="0.419608"/>
</linearGradient>
<linearGradient id="paint3_linear_225_900" x1="6938.73" y1="-4951.58" x2="6938.73" y2="32951.7" gradientUnits="userSpaceOnUse">
<stop stop-color="#166AB8"/>
<stop offset="0.399994" stop-color="#36AEE8"/>
<stop offset="0.846161" stop-color="#0798DD"/>
<stop offset="1" stop-color="#0798DD"/>
</linearGradient>
<linearGradient id="paint4_linear_225_900" x1="8846.41" y1="-5262.16" x2="8846.41" y2="35043" gradientUnits="userSpaceOnUse">
<stop stop-color="#124379"/>
<stop offset="0.389999" stop-color="#1487CB"/>
<stop offset="0.780228" stop-color="#165197"/>
<stop offset="1" stop-color="#165197"/>
</linearGradient>
<linearGradient id="paint5_linear_225_900" x1="208.235" y1="4576.16" x2="5906.76" y2="4576.16" gradientUnits="userSpaceOnUse">
<stop stop-color="#33BDF2" stop-opacity="0.698039"/>
<stop offset="1" stop-color="#1DACD8"/>
</linearGradient>
<linearGradient id="paint6_linear_225_900" x1="12135.3" y1="27420.7" x2="12135.3" y2="-875.902" gradientUnits="userSpaceOnUse">
<stop stop-color="#136AB4"/>
<stop offset="0.6" stop-color="#59CAF5" stop-opacity="0.54902"/>
<stop offset="1" stop-color="#59CAF5" stop-opacity="0.235294"/>
</linearGradient>
<linearGradient id="paint7_linear_225_900" x1="5.83918" y1="14556.7" x2="21142.5" y2="14556.7" gradientUnits="userSpaceOnUse">
<stop stop-color="#05A1E6" stop-opacity="0.247059"/>
<stop offset="1" stop-color="#05A1E6"/>
</linearGradient>
<linearGradient id="paint8_linear_225_900" x1="7248.42" y1="26944.3" x2="7248.42" y2="-2029.11" gradientUnits="userSpaceOnUse">
<stop stop-color="#318ED5"/>
<stop offset="1" stop-color="#38A7E4"/>
</linearGradient>
<linearGradient id="paint9_linear_225_900" x1="6765.89" y1="15419.7" x2="6765.89" y2="-12744.1" gradientUnits="userSpaceOnUse">
<stop stop-color="#05A1E6"/>
<stop offset="1" stop-color="#05A1E6" stop-opacity="0.54902"/>
</linearGradient>
<linearGradient id="paint10_linear_225_900" x1="7785.84" y1="23859.9" x2="7785.84" y2="61.1337" gradientUnits="userSpaceOnUse">
<stop stop-color="#1959A6"/>
<stop offset="0.5" stop-color="#05A1E6"/>
<stop offset="0.917587" stop-color="#7EC5EA"/>
<stop offset="1" stop-color="#7EC5EA"/>
</linearGradient>
<linearGradient id="paint11_linear_225_900" x1="12793.4" y1="27483.5" x2="4726.23" y2="2829.78" gradientUnits="userSpaceOnUse">
<stop stop-color="#165096"/>
<stop offset="1" stop-color="#0D82CA"/>
</linearGradient>
<linearGradient id="paint12_linear_225_900" x1="5347.15" y1="12937.5" x2="5347.15" y2="-547.759" gradientUnits="userSpaceOnUse">
<stop stop-color="#05A1E6"/>
<stop offset="0.873627" stop-color="#0495D6"/>
<stop offset="1" stop-color="#0495D6"/>
</linearGradient>
<linearGradient id="paint13_linear_225_900" x1="12079" y1="-1176.33" x2="-489.323" y2="26729" gradientUnits="userSpaceOnUse">
<stop stop-color="#38A7E4" stop-opacity="0.329412"/>
<stop offset="0.961533" stop-color="#0E88D3"/>
<stop offset="1" stop-color="#0E88D3"/>
</linearGradient>
<linearGradient id="paint14_linear_225_900" x1="10815.2" y1="-85.1287" x2="10815.2" y2="29334.6" gradientUnits="userSpaceOnUse">
<stop stop-color="#168CD4"/>
<stop offset="0.5" stop-color="#1C87CC"/>
<stop offset="1" stop-color="#154B8D"/>
</linearGradient>
<linearGradient id="paint15_linear_225_900" x1="1799.24" y1="-2544.63" x2="1926.72" y2="540.839" gradientUnits="userSpaceOnUse">
<stop stop-color="#97D6EE"/>
<stop offset="0.703293" stop-color="#55C1EA"/>
<stop offset="1" stop-color="#55C1EA"/>
</linearGradient>
<linearGradient id="paint16_linear_225_900" x1="795.905" y1="-110.118" x2="1372.15" y2="-3378.48" gradientUnits="userSpaceOnUse">
<stop stop-color="#7ACCEC"/>
<stop offset="1" stop-color="#3FB7ED"/>
</linearGradient>
<linearGradient id="paint17_linear_225_900" x1="8122.2" y1="1506.11" x2="8122.2" y2="30281.5" gradientUnits="userSpaceOnUse">
<stop stop-color="#1DA7E7"/>
<stop offset="1" stop-color="#37ABE7" stop-opacity="0"/>
</linearGradient>
</defs>
</svg>
