<svg width="255" height="255" viewBox="0 0 255 255" fill="none" xmlns="http://www.w3.org/2000/svg">
<path d="M103.762 184.971L118.033 150.257H149.249C160.701 150.257 170.799 142.088 172.499 130.763C172.995 127.486 172.778 124.141 171.864 120.955C170.95 117.769 169.359 114.818 167.201 112.303C165.044 109.787 162.369 107.766 159.359 106.378C156.35 104.989 153.077 104.266 149.762 104.257H46.2624L103.762 46.757V69.257H149.592C176.968 69.257 203.341 91.307 207.271 118.4C208.502 126.401 208.029 134.571 205.884 142.377C203.739 150.182 199.969 157.447 194.822 163.695C189.675 169.943 183.267 175.033 176.016 178.633C168.766 182.233 160.837 184.261 152.748 184.585L199.805 231.643C224.77 214.288 242.693 188.565 250.326 159.134C257.96 129.703 254.798 98.5116 241.415 71.2108C228.032 43.91 205.313 22.306 177.373 10.3132C149.434 -1.67961 118.122 -3.26787 89.1128 5.8362C60.1032 14.9403 35.3141 34.1344 19.2371 59.9408C3.16016 85.7473 -3.14122 116.459 1.47471 146.511C6.09064 176.563 21.3185 203.968 44.3993 223.76C67.48 243.552 96.8868 254.422 127.291 254.4C140.805 254.419 154.229 252.203 167.019 247.843L103.762 184.971Z" fill="#59B4D9"/>
</svg>
